{
	"asset":{
		"generator":"Khronos glTF Blender I/O v3.6.27",
		"version":"2.0"
	},
	"scene":0,
	"scenes":[
		{
			"name":"Scene",
			"nodes":[
				0
			]
		}
	],
	"nodes":[
		{
			"mesh":0,
			"name":"Sphere.001",
			"rotation":[
				0,
				-1,
				0,
				4.371138828673793e-08
			],
			"scale":[
				0.4124999940395355,
				0.44999998807907104,
				0.4124999940395355
			],
			"translation":[
				3.166435480117798,
				0.07172990590333939,
				-5.491472244262695
			]
		}
	],
	"materials":[
		{
			"doubleSided":true,
			"name":"Material.008",
			"pbrMetallicRoughness":{
				"baseColorTexture":{
					"index":0
				},
				"metallicFactor":0,
				"roughnessFactor":0.5
			}
		}
	],
	"meshes":[
		{
			"name":"Sphere.001",
			"primitives":[
				{
					"attributes":{
						"POSITION":0,
						"NORMAL":1,
						"TEXCOORD_0":2
					},
					"indices":3,
					"material":0
				}
			]
		}
	],
	"textures":[
		{
			"sampler":0,
			"source":0
		}
	],
	"images":[
		{
			"mimeType":"image/png",
			"name":"Bake",
			"uri":"Bake.png"
		}
	],
	"accessors":[
		{
			"bufferView":0,
			"componentType":5126,
			"count":15504,
			"max":[
				1.1363636255264282,
				1.3465908765792847,
				1.1363636255264282
			],
			"min":[
				-1.1363636255264282,
				-1.388888955116272,
				-1.1363636255264282
			],
			"type":"VEC3"
		},
		{
			"bufferView":1,
			"componentType":5126,
			"count":15504,
			"type":"VEC3"
		},
		{
			"bufferView":2,
			"componentType":5126,
			"count":15504,
			"type":"VEC2"
		},
		{
			"bufferView":3,
			"componentType":5123,
			"count":23148,
			"type":"SCALAR"
		}
	],
	"bufferViews":[
		{
			"buffer":0,
			"byteLength":186048,
			"byteOffset":0,
			"target":34962
		},
		{
			"buffer":0,
			"byteLength":186048,
			"byteOffset":186048,
			"target":34962
		},
		{
			"buffer":0,
			"byteLength":124032,
			"byteOffset":372096,
			"target":34962
		},
		{
			"buffer":0,
			"byteLength":46296,
			"byteOffset":496128,
			"target":34963
		}
	],
	"samplers":[
		{
			"magFilter":9729,
			"minFilter":9987
		}
	],
	"buffers":[
		{
			"byteLength":542424,
			"uri":"Seedot.bin"
		}
	]
}
