{
	"asset":{
		"generator":"Khronos glTF Blender I/O v3.6.27",
		"version":"2.0"
	},
	"scene":0,
	"scenes":[
		{
			"name":"Scene",
			"nodes":[
				0
			]
		}
	],
	"nodes":[
		{
			"mesh":0,
			"name":"Body_Main.001",
			"rotation":[
				0.03990305960178375,
				-0.08916550129652023,
				0.12442431598901749,
				0.9874086976051331
			],
			"translation":[
				0.43472909927368164,
				-0.08685994148254395,
				-0.1858525425195694
			]
		}
	],
	"materials":[
		{
			"doubleSided":true,
			"name":"Material",
			"pbrMetallicRoughness":{
				"baseColorTexture":{
					"index":0
				},
				"metallicFactor":0,
				"roughnessFactor":0.5
			}
		}
	],
	"meshes":[
		{
			"name":"Sphere.010",
			"primitives":[
				{
					"attributes":{
						"POSITION":0,
						"NORMAL":1,
						"TEXCOORD_0":2
					},
					"indices":3,
					"material":0
				}
			]
		}
	],
	"textures":[
		{
			"sampler":0,
			"source":0
		}
	],
	"images":[
		{
			"mimeType":"image/png",
			"name":"BakeToS",
			"uri":"BakeToS.png"
		}
	],
	"accessors":[
		{
			"bufferView":0,
			"componentType":5126,
			"count":23058,
			"max":[
				1.6455426216125488,
				1.7954661846160889,
				1.0005205869674683
			],
			"min":[
				-1.9897925853729248,
				-1.5863873958587646,
				-1.0691401958465576
			],
			"type":"VEC3"
		},
		{
			"bufferView":1,
			"componentType":5126,
			"count":23058,
			"type":"VEC3"
		},
		{
			"bufferView":2,
			"componentType":5126,
			"count":23058,
			"type":"VEC2"
		},
		{
			"bufferView":3,
			"componentType":5123,
			"count":38292,
			"type":"SCALAR"
		}
	],
	"bufferViews":[
		{
			"buffer":0,
			"byteLength":276696,
			"byteOffset":0,
			"target":34962
		},
		{
			"buffer":0,
			"byteLength":276696,
			"byteOffset":276696,
			"target":34962
		},
		{
			"buffer":0,
			"byteLength":184464,
			"byteOffset":553392,
			"target":34962
		},
		{
			"buffer":0,
			"byteLength":76584,
			"byteOffset":737856,
			"target":34963
		}
	],
	"samplers":[
		{
			"magFilter":9729,
			"minFilter":9987
		}
	],
	"buffers":[
		{
			"byteLength":814440,
			"uri":"Shinigami.bin"
		}
	]
}
