{
	"asset":{
		"generator":"Khronos glTF Blender I/O v3.6.27",
		"version":"2.0"
	},
	"scene":0,
	"scenes":[
		{
			"name":"Scene",
			"nodes":[
				0
			]
		}
	],
	"nodes":[
		{
			"mesh":0,
			"name":"Plane.001",
			"scale":[
				0.17910252511501312,
				0.45228976011276245,
				0.17910252511501312
			],
			"translation":[
				1.4316484928131104,
				0.3576868176460266,
				1.099327802658081
			]
		}
	],
	"materials":[
		{
			"doubleSided":true,
			"name":"Material",
			"pbrMetallicRoughness":{
				"baseColorTexture":{
					"index":0
				},
				"metallicFactor":0,
				"roughnessFactor":0.5
			}
		}
	],
	"meshes":[
		{
			"name":"Plane.010",
			"primitives":[
				{
					"attributes":{
						"POSITION":0,
						"NORMAL":1,
						"TEXCOORD_0":2
					},
					"indices":3,
					"material":0
				}
			]
		}
	],
	"textures":[
		{
			"sampler":0,
			"source":0
		}
	],
	"images":[
		{
			"mimeType":"image/png",
			"name":"BakeToR",
			"uri":"BakeToR.png"
		}
	],
	"accessors":[
		{
			"bufferView":0,
			"componentType":5126,
			"count":463585,
			"max":[
				8.577535629272461,
				2.9738266468048096,
				6.518352508544922
			],
			"min":[
				-1.7827427387237549,
				-0.42032590508461,
				-3.841925621032715
			],
			"type":"VEC3"
		},
		{
			"bufferView":1,
			"componentType":5126,
			"count":463585,
			"type":"VEC3"
		},
		{
			"bufferView":2,
			"componentType":5126,
			"count":463585,
			"type":"VEC2"
		},
		{
			"bufferView":3,
			"componentType":5125,
			"count":704196,
			"type":"SCALAR"
		}
	],
	"bufferViews":[
		{
			"buffer":0,
			"byteLength":5563020,
			"byteOffset":0,
			"target":34962
		},
		{
			"buffer":0,
			"byteLength":5563020,
			"byteOffset":5563020,
			"target":34962
		},
		{
			"buffer":0,
			"byteLength":3708680,
			"byteOffset":11126040,
			"target":34962
		},
		{
			"buffer":0,
			"byteLength":2816784,
			"byteOffset":14834720,
			"target":34963
		}
	],
	"samplers":[
		{
			"magFilter":9729,
			"minFilter":9987
		}
	],
	"buffers":[
		{
			"byteLength":17651504,
			"uri":"SpandanAnimeRoom.bin"
		}
	]
}
